<svg width="80" height="80" viewBox="0 0 80 80" fill="none" xmlns="http://www.w3.org/2000/svg">
<ellipse cx="39.9988" cy="40" rx="39.9988" ry="40" fill="#DD2B1C"/>
<path d="M59.4794 31.6372L58.3979 30.5557C57.8437 30.003 57.0929 29.6926 56.3102 29.6926C55.5275 29.6926 54.7767 30.003 54.2225 30.5557L51.6413 33.1369V22.9842C51.6413 22.7232 51.5376 22.4728 51.353 22.2883C51.1685 22.1037 50.9181 22 50.6571 22H37.6202C37.6005 22 37.5826 22.0094 37.5631 22.0106C37.4853 22.0154 37.4084 22.0297 37.334 22.0529C37.3029 22.0608 37.2723 22.0702 37.2422 22.0812C37.1403 22.1218 37.046 22.1792 36.9633 22.2512L26.3277 31.7779C26.2622 31.8384 26.2053 31.9076 26.1586 31.9836C26.1459 32.0033 26.1348 32.0234 26.1236 32.0441C26.088 32.1093 26.0599 32.1783 26.04 32.2499C26.0362 32.2633 26.0302 32.2761 26.0268 32.2892C26.0095 32.3618 26.0005 32.4361 26 32.5107V53.7559C26 54.0169 26.1037 54.2672 26.2883 54.4518C26.4728 54.6363 26.7232 54.74 26.9842 54.74H50.6567C50.9177 54.74 51.1681 54.6363 51.3526 54.4518C51.5372 54.2672 51.6409 54.0169 51.6409 53.7559V43.6511L59.4797 35.8128C60.0325 35.2585 60.3428 34.5077 60.3428 33.7249C60.3427 32.9422 60.0322 32.1914 59.4794 31.6372ZM57.0059 31.9473L58.0871 33.0289C58.2714 33.2136 58.3749 33.4639 58.375 33.7249C58.375 33.9859 58.2716 34.2363 58.0874 34.4211L57.4096 35.0993L54.9361 32.6257L55.6144 31.9473C55.7993 31.7634 56.0495 31.6601 56.3103 31.6601C56.5711 31.6601 56.821 31.7633 57.0059 31.9473ZM45.735 46.7739L42.4182 47.6133L43.2614 44.3007L53.5442 34.0174L56.0178 36.4909L45.735 46.7739ZM35.2302 26.4463L36.6362 25.1866V31.5268H29.5584L35.2302 26.4463ZM49.673 52.7717H27.9687V33.4951H37.6204C37.8814 33.4951 38.1318 33.3914 38.3163 33.2068C38.5009 33.0223 38.6046 32.7719 38.6046 32.5109V23.9683H49.6732V35.1053L41.6785 43.0999C41.5532 43.2248 41.4641 43.3812 41.4206 43.5527L40.1026 48.73C40.0605 48.8953 40.0621 49.0687 40.1072 49.2332C40.1523 49.3977 40.2394 49.5477 40.36 49.6684C40.4805 49.7891 40.6303 49.8764 40.7948 49.9217C40.9592 49.967 41.1326 49.9689 41.2979 49.927L46.4808 48.6154C46.6528 48.5719 46.8098 48.4827 46.9351 48.3572L49.673 45.6194V52.7717Z" fill="white"/>
</svg>
