<svg width="38" height="38" viewBox="0 0 38 38" fill="none" xmlns="http://www.w3.org/2000/svg">
<circle cx="19" cy="19" r="18" stroke="#DD2B1C" stroke-width="2"/>
<path d="M14.764 23.272L15.898 21.886C16.672 22.786 17.95 23.344 19.228 23.344C20.812 23.344 21.73 22.624 21.73 21.508C21.73 20.32 20.776 19.816 19.066 19.816C18.562 19.816 17.86 19.816 17.68 19.834V17.944C17.896 17.962 18.598 17.962 19.066 17.962C20.47 17.962 21.532 17.476 21.532 16.378C21.532 15.262 20.452 14.686 19.102 14.686C17.878 14.686 16.87 15.154 16.006 16.018L14.926 14.704C15.844 13.624 17.302 12.814 19.3 12.814C21.892 12.814 23.638 14.038 23.638 16.054C23.638 17.656 22.27 18.592 21.028 18.808C22.198 18.916 23.818 19.87 23.818 21.724C23.818 23.758 22.072 25.216 19.3 25.216C17.158 25.216 15.574 24.352 14.764 23.272Z" fill="#DD2B1C"/>
</svg>
