<svg width="81" height="80" viewBox="0 0 81 80" fill="none" xmlns="http://www.w3.org/2000/svg">
<ellipse cx="40.991" cy="40" rx="39.9988" ry="40" fill="#DD2B1C"/>
<path fill-rule="evenodd" clip-rule="evenodd" d="M28.8332 22H53.7204C54.502 22 55.2116 22.3188 55.7244 22.8316C56.2372 23.3444 56.556 24.054 56.556 24.8356V49.7228C56.556 50.4988 56.2412 51.1872 55.7352 51.6944L55.7304 51.6992C55.2284 52.2004 54.532 52.518 53.7692 52.5532L42.2416 52.5344L36.2188 56.908L34.4884 58L34.4912 55.9532L34.4964 52.5576H28.8332C28.052 52.5576 27.342 52.2388 26.8296 51.726C26.3168 51.2132 25.998 50.5036 25.998 49.7224V24.8352C25.998 24.0536 26.3168 23.344 26.8296 22.8312C27.3424 22.3184 28.052 22 28.8332 22ZM53.7204 24.2632H28.8332C28.6768 24.2632 28.5332 24.328 28.4296 24.4316C28.326 24.5352 28.2612 24.6788 28.2612 24.8356V49.7228C28.2612 49.8792 28.326 50.0228 28.4296 50.1264C28.5332 50.23 28.6768 50.2948 28.8332 50.2948H35.6248H36.7536L36.7516 51.4264L36.748 53.9064L41.2904 50.4672L41.5412 50.3088L41.8424 50.2948L53.6716 50.2996C53.852 50.2916 54.0172 50.218 54.1348 50.1036L54.1396 50.0988C54.2336 50.0024 54.2928 49.8704 54.2928 49.7228V24.8352C54.2928 24.6788 54.228 24.5352 54.1244 24.4312C54.0204 24.328 53.8768 24.2632 53.7204 24.2632Z" fill="white"/>
<path fill-rule="evenodd" clip-rule="evenodd" d="M33.3796 31.6179C32.7544 31.6179 32.248 31.1115 32.248 30.4863C32.248 29.8615 32.7544 29.3547 33.3796 29.3547H49.1756C49.8004 29.3547 50.3072 29.8615 50.3072 30.4863C50.3072 31.1115 49.8004 31.6179 49.1756 31.6179H33.3796Z" fill="white"/>
<path fill-rule="evenodd" clip-rule="evenodd" d="M33.3796 38.4172C32.7544 38.4172 32.248 37.9104 32.248 37.2852C32.248 36.6604 32.7544 36.1536 33.3796 36.1536H49.1756C49.8004 36.1536 50.3072 36.6604 50.3072 37.2852C50.3072 37.9104 49.8004 38.4172 49.1756 38.4172H33.3796Z" fill="white"/>
<path fill-rule="evenodd" clip-rule="evenodd" d="M33.3796 45.1817C32.7544 45.1817 32.248 44.6749 32.248 44.0501C32.248 43.4253 32.7544 42.9185 33.3796 42.9185H44.672C45.2968 42.9185 45.8036 43.4253 45.8036 44.0501C45.8036 44.6749 45.2968 45.1817 44.672 45.1817H33.3796Z" fill="white"/>
</svg>
