<svg width="81" height="80" viewBox="0 0 81 80" fill="none" xmlns="http://www.w3.org/2000/svg">
<ellipse cx="40.9968" cy="40" rx="39.9988" ry="40" fill="#DD2B1C"/>
<path d="M57.8671 43.9313C57.3686 36.5678 51.5922 30.5187 44.0348 29.0579V28.6387C44.0242 27.67 43.6321 26.7446 42.9438 26.0633C42.2556 25.3821 41.3266 25 40.3585 25C39.3904 25 38.4615 25.3821 37.7732 26.0633C37.0849 26.7446 36.6929 27.67 36.6822 28.6387V29.1188C29.2647 30.6748 23.6251 36.6608 23.1329 43.9313C22.2747 44.019 21.4794 44.4219 20.9008 45.0622C20.3221 45.7025 20.0012 46.5348 20 47.3981V47.5153C20.0013 48.439 20.3685 49.3244 21.021 49.9776C21.6735 50.6308 22.5582 50.9985 23.4812 51H57.5188C58.4417 50.9985 59.3263 50.6309 59.9788 49.9778C60.6314 49.3247 60.9986 48.4393 61 47.5158V47.3985C60.9989 46.5351 60.678 45.7028 60.0994 45.0624C59.5207 44.422 58.7254 44.019 57.8671 43.9313ZM38.9174 28.6387C38.9241 28.2607 39.0788 27.9003 39.3484 27.6353C39.6179 27.3703 39.9806 27.2218 40.3585 27.2218C40.7364 27.2218 41.0991 27.3703 41.3686 27.6353C41.6382 27.9003 41.7929 28.2607 41.7996 28.6387V28.773C41.37 28.743 40.9377 28.7228 40.5 28.7228C39.9662 28.7228 39.4391 28.7488 38.9174 28.7931V28.6387ZM40.5 30.9571C48.4817 30.9571 55.039 36.6801 55.6233 43.9152H25.3767C25.961 36.6805 32.5183 30.9571 40.5 30.9571ZM58.7647 47.5171C58.7641 47.8475 58.6327 48.1642 58.3991 48.3978C58.1656 48.6314 57.849 48.7627 57.5188 48.7631H23.4812C23.1508 48.7627 22.834 48.6312 22.6004 48.3973C22.3668 48.1635 22.2355 47.8464 22.2353 47.5158V47.3985C22.2356 47.0679 22.367 46.7509 22.6005 46.5171C22.8341 46.2833 23.1508 46.1517 23.4812 46.1512H57.5188C57.8492 46.1517 58.1659 46.2833 58.3994 46.5171C58.633 46.7509 58.7644 47.0679 58.7647 47.3985V47.5171Z" fill="white"/>
</svg>
