<svg width="81" height="80" viewBox="0 0 81 80" fill="none" xmlns="http://www.w3.org/2000/svg">
<ellipse cx="40.9929" cy="40" rx="39.9988" ry="40" fill="#DD2B1C"/>
<path d="M34.2137 34.3C34.3769 34.4958 34.638 34.6263 34.899 34.6263C35.1601 34.6263 35.4211 34.4958 35.5843 34.3L38.5211 30.8084C38.6843 30.6127 38.7495 30.3842 38.7169 30.1558C38.6843 29.9274 38.5864 29.699 38.3906 29.5684C38.1948 29.4053 37.9664 29.34 37.738 29.3727C37.5095 29.4053 37.2811 29.5032 37.1506 29.699L34.899 32.3421L33.8874 31.1348C33.5611 30.7758 33.0064 30.7106 32.6474 31.0369C32.2885 31.3632 32.2232 31.9179 32.5495 32.2769L34.2137 34.3Z" fill="white"/>
<path d="M48.4409 42.0337H33.9851C30.102 42.0337 27.002 45.1663 27.002 49.0168C27.002 52.8674 30.102 56 33.9525 56H48.4083C52.2588 56 55.3914 52.8674 55.3914 49.0168C55.3914 45.1663 52.2914 42.0337 48.4409 42.0337ZM33.9525 54.14C31.1462 54.14 28.862 51.8558 28.862 49.0495C28.862 46.2432 31.1462 43.959 33.9525 43.959C36.7588 43.959 39.043 46.2432 39.043 49.0495C39.043 51.8558 36.7914 54.14 33.9525 54.14ZM48.4409 54.14H38.6841C40.0546 52.8674 40.9356 51.04 40.9356 49.0168C40.9356 46.9937 40.0546 45.199 38.6841 43.8937H48.4083C51.2146 43.8937 53.5314 46.1779 53.5314 49.0168C53.5314 51.8558 51.2472 54.14 48.4409 54.14Z" fill="white"/>
<path d="M49.6813 46.3409C49.355 46.0146 48.7677 46.0146 48.4413 46.3409L47.0055 47.7767L45.5698 46.3409C45.2434 46.0146 44.6561 46.0146 44.3298 46.3409C43.9708 46.6999 43.9708 47.2546 44.3298 47.5809L45.7655 49.0167L44.3298 50.4525C43.9708 50.8115 43.9708 51.3662 44.3298 51.6925C44.4929 51.8557 44.7213 51.9536 44.9498 51.9536C45.1782 51.9536 45.4066 51.8557 45.5698 51.6925L47.0055 50.2567L48.4413 51.6925C48.6045 51.8557 48.8329 51.9536 49.0613 51.9536C49.2898 51.9536 49.5182 51.8557 49.6813 51.6925C50.0403 51.3336 50.0403 50.7788 49.6813 50.4525L48.2455 49.0167L49.6813 47.5809C50.0077 47.2546 50.0077 46.6999 49.6813 46.3409Z" fill="white"/>
<path d="M33.9525 38.9663H48.4083C52.2588 38.9663 55.3914 35.8337 55.3914 31.9832C55.3914 28.1326 52.2588 25 48.4083 25H33.9525C30.102 25 27.002 28.1326 27.002 31.9832C27.002 35.8337 30.102 38.9663 33.9525 38.9663ZM48.4409 26.86C51.2472 26.86 53.5314 29.1442 53.5314 31.9505C53.5314 34.7568 51.2472 37.0411 48.4409 37.0411C45.6346 37.0411 43.3504 34.7568 43.3504 31.9505C43.3177 29.1768 45.602 26.86 48.4409 26.86ZM33.9525 26.86H43.6767C42.3062 28.1326 41.4251 29.96 41.4251 31.9832C41.4251 34.0063 42.3062 35.8011 43.6767 37.1063H33.9525C31.1462 37.1063 28.8293 34.8221 28.8293 31.9832C28.862 29.1768 31.1462 26.86 33.9525 26.86Z" fill="white"/>
</svg>
