<svg width="14" height="16" viewBox="0 0 14 16" fill="none" xmlns="http://www.w3.org/2000/svg">
<path d="M4.41494 11.78C4.55621 11.78 4.6918 11.7244 4.79238 11.6252C4.89297 11.526 4.95047 11.3912 4.95244 11.25V6.9325C4.95244 6.78994 4.89581 6.65323 4.79501 6.55243C4.69421 6.45163 4.5575 6.395 4.41494 6.395C4.27239 6.395 4.13567 6.45163 4.03487 6.55243C3.93407 6.65323 3.87744 6.78994 3.87744 6.9325V11.25C3.87941 11.3912 3.93691 11.526 4.0375 11.6252C4.13809 11.7244 4.27368 11.78 4.41494 11.78Z" fill="#DD2B1C"/>
<path d="M6.9999 11.78C7.14117 11.78 7.27676 11.7244 7.37735 11.6252C7.47793 11.526 7.53543 11.3912 7.5374 11.25V6.9325C7.5374 6.78994 7.48077 6.65323 7.37997 6.55243C7.27917 6.45163 7.14246 6.395 6.9999 6.395C6.85735 6.395 6.72063 6.45163 6.61983 6.55243C6.51903 6.65323 6.4624 6.78994 6.4624 6.9325V11.25C6.46437 11.3912 6.52187 11.526 6.62246 11.6252C6.72305 11.7244 6.85864 11.78 6.9999 11.78Z" fill="#DD2B1C"/>
<path d="M9.58486 11.78C9.72613 11.78 9.86172 11.7244 9.96231 11.6252C10.0629 11.526 10.1204 11.3912 10.1224 11.25V6.9325C10.1224 6.78994 10.0657 6.65323 9.96493 6.55243C9.86413 6.45163 9.72742 6.395 9.58486 6.395C9.44231 6.395 9.30559 6.45163 9.20479 6.55243C9.10399 6.65323 9.04736 6.78994 9.04736 6.9325V11.25C9.04933 11.3912 9.10683 11.526 9.20742 11.6252C9.30801 11.7244 9.4436 11.78 9.58486 11.78Z" fill="#DD2B1C"/>
<path d="M13.4625 2.6025H10.0225L9.58 1.12C9.48197 0.797831 9.28356 0.515411 9.01373 0.313935C8.74389 0.112458 8.41675 0.00246563 8.08 0H5.9225C5.58575 0.00246563 5.25861 0.112458 4.98877 0.313935C4.71894 0.515411 4.52053 0.797831 4.4225 1.12L3.98 2.6025H0.5375C0.394946 2.6025 0.258231 2.65913 0.15743 2.75993C0.0566293 2.86073 0 2.99745 0 3.14C0 3.28255 0.0566293 3.41927 0.15743 3.52007C0.258231 3.62087 0.394946 3.6775 0.5375 3.6775H1.1775V14.025C1.18014 14.4167 1.33741 14.7915 1.61508 15.0677C1.89275 15.344 2.26831 15.4993 2.66 15.5H11.3575C11.7505 15.4993 12.1272 15.3429 12.4051 15.0651C12.6829 14.7872 12.8393 14.4105 12.84 14.0175V3.66H13.4625C13.6051 3.66 13.7418 3.60337 13.8426 3.50257C13.9434 3.40177 14 3.26505 14 3.1225C13.9997 3.05281 13.9855 2.98389 13.9581 2.91979C13.9308 2.8557 13.8909 2.79771 13.8408 2.74926C13.7907 2.7008 13.7315 2.66286 13.6665 2.63766C13.6015 2.61245 13.5322 2.6005 13.4625 2.6025ZM5.4625 1.4275C5.49307 1.32825 5.55379 1.24098 5.63622 1.17781C5.71866 1.11464 5.81871 1.07871 5.9225 1.075H8.095C8.20122 1.0741 8.30474 1.10847 8.38934 1.17271C8.47394 1.23695 8.53484 1.32744 8.5625 1.43L8.9075 2.6025H5.09L5.4625 1.4275ZM11.765 14.135H11.7275C11.6995 14.2153 11.6476 14.2852 11.5788 14.3352C11.51 14.3853 11.4276 14.4131 11.3425 14.415H2.66C2.55101 14.413 2.4471 14.3685 2.37049 14.291C2.29388 14.2134 2.25064 14.109 2.25 14V3.66H11.765V14.135Z" fill="#DD2B1C"/>
</svg>
