<svg width="62" height="47" viewBox="0 0 62 47" fill="none" xmlns="http://www.w3.org/2000/svg">
<path d="M61.7415 31.6495L60.4589 24.5711C59.5906 19.7797 57.8807 15.2259 55.3762 11.0345L51.6399 4.80026C50.1228 2.26327 47.5626 0.674128 44.6157 0.441606C41.6664 0.208602 38.8863 1.37649 36.9881 3.64623L32.3344 9.21729C31.8234 8.82267 31.2074 8.58864 30.5483 8.54617C29.6706 8.48959 28.8243 8.7793 28.1661 9.36244C26.9499 10.4394 26.7365 12.2298 27.58 13.5618C25.0724 14.7897 22.1322 14.9144 19.517 13.856L18.5358 13.4589C15.4732 12.2204 12.1284 12.2892 9.1173 13.6525C6.10536 15.016 3.84617 17.4861 2.75534 20.6089L1.21452 25.0509C0.394155 27.3913 0.1937 29.9151 0.634884 32.3499C1.50358 37.1439 4.70151 41.1445 9.19184 43.0521C15.6623 45.7846 22.7698 46.89 29.7451 46.2485L53.09 44.1186C58.9152 43.063 62.7961 37.4695 61.7415 31.6495ZM29.3765 10.7296C29.6677 10.4716 30.0422 10.343 30.4309 10.3682C30.8195 10.3929 31.1744 10.5687 31.4301 10.8621L36.3866 16.5427C36.9093 17.1398 36.85 18.0552 36.256 18.5819C35.9643 18.8399 35.5894 18.9686 35.2007 18.9434C34.8125 18.9182 34.4577 18.7428 34.2016 18.4495L29.2445 12.7685C28.7238 12.1698 28.7814 11.2556 29.3765 10.7296ZM33.4217 20.1722C33.908 20.5137 34.4744 20.7259 35.0829 20.7655C35.9611 20.822 36.8074 20.5323 37.4659 19.9491C38.3524 19.1637 38.7116 17.996 38.5137 16.9039C38.4446 16.5223 38.3017 16.1522 38.0953 15.8087L43.6247 9.20585C43.7009 9.11595 43.7808 9.06205 43.9445 9.07316C44.067 9.08132 44.1449 9.13153 44.2146 9.24847L47.9418 15.4775C49.9112 18.7534 51.2573 22.3321 51.9427 26.1142L53.2253 33.1926C53.4143 34.2357 52.7742 35.2581 51.7618 35.5512L28.9586 37.6306C23.3941 38.1428 17.7256 37.261 12.5699 35.0816C10.775 34.3137 9.49651 32.7156 9.15062 30.8068C8.97322 29.8278 9.05199 28.8499 9.38459 27.9004L10.9367 23.4632C11.2412 22.5935 11.8629 21.9096 12.6875 21.5377C13.5275 21.1581 14.4483 21.1394 15.2919 21.4898L16.2788 21.884C21.9884 24.1945 28.3374 23.5418 33.4217 20.1722ZM29.5787 44.4304C22.9005 45.0443 16.0966 43.9863 9.9038 41.371C5.98371 39.7053 3.19016 36.2113 2.43146 32.0243C2.04654 29.9001 2.22141 27.6975 2.93841 25.6518L4.47952 21.2089C5.40376 18.5643 7.31817 16.4715 9.87037 15.3159C12.4221 14.1604 15.2565 14.1021 17.8513 15.1513L18.8324 15.5484C22.0642 16.8561 25.7086 16.6252 28.7592 14.989L32.1159 18.836C27.585 21.7049 22 22.2296 16.9599 20.19L15.9807 19.7989C14.6772 19.2577 13.2405 19.2843 11.9361 19.8736C10.6518 20.4533 9.68467 21.5137 9.21328 22.8599L7.66118 27.2971C7.22282 28.5481 7.11958 29.8384 7.35404 31.1323C7.80961 33.6465 9.49103 35.7505 11.8555 36.7617C17.2909 39.0594 23.2628 39.9882 29.1249 39.4488L52.0066 37.3624C52.0548 37.3582 52.1027 37.35 52.1494 37.3379C54.123 36.8344 55.3849 34.8707 55.0219 32.8671L53.7393 25.7887C53.0143 21.7881 51.5904 18.0025 49.5077 14.5387L45.7822 8.31206C45.4024 7.67599 44.7928 7.29945 44.0647 7.25109C43.3448 7.2035 42.6931 7.47925 42.2272 8.03073L36.9164 14.3721L33.5907 10.5608L38.3886 4.8172C39.9026 3.00714 42.1198 2.07578 44.4721 2.26158C46.8216 2.44742 48.8632 3.71422 50.0735 5.73826L53.8097 11.972C56.2005 15.9734 57.8333 20.3219 58.6623 24.8966L59.9449 31.975C60.82 36.8042 57.5989 41.446 52.8445 42.3111L29.5787 44.4304Z" fill="#DD2B1C"/>
</svg>
