<svg width="75" height="37" viewBox="0 0 75 37" fill="none" xmlns="http://www.w3.org/2000/svg">
<path fill-rule="evenodd" clip-rule="evenodd" d="M24.668 25.05H50.3323C50.8066 25.05 51.1914 24.667 51.1914 24.1914C51.191 23.7173 50.8068 23.3327 50.3326 23.3327L24.6681 23.3325C24.1938 23.3325 23.8093 23.7173 23.8093 24.1914C23.8087 24.6669 24.1938 25.0501 24.668 25.05Z" fill="#DD2B1C"/>
<path fill-rule="evenodd" clip-rule="evenodd" d="M1.14148 25.05H8.30037C8.77396 25.05 9.15918 24.667 9.15918 24.1914C9.15908 23.7173 8.77464 23.3327 8.30046 23.3327L1.14148 23.3325C0.667165 23.3325 0.282865 23.7173 0.282865 24.1914C0.282768 24.6669 0.667406 25.0501 1.14148 25.05Z" fill="#DD2B1C"/>
<path fill-rule="evenodd" clip-rule="evenodd" d="M66.7003 25.05H74.141C74.6154 25.05 75 24.667 75 24.1914C74.9998 23.7173 74.6154 23.3327 74.1414 23.3327L66.7004 23.3325C66.2261 23.3325 65.8419 23.7173 65.8419 24.1914C65.8416 24.6669 66.2265 25.0501 66.7003 25.05Z" fill="#DD2B1C"/>
<path fill-rule="evenodd" clip-rule="evenodd" d="M24.668 30.674H50.3323C50.8066 30.674 51.1914 30.2895 51.1914 29.8154C51.191 29.3412 50.8068 28.9567 50.3326 28.9567L24.6681 28.9565C24.1938 28.9565 23.8093 29.3413 23.8093 29.8154C23.8087 30.2894 24.1938 30.6741 24.668 30.674Z" fill="#DD2B1C"/>
<path fill-rule="evenodd" clip-rule="evenodd" d="M3.1548 30.6739H8.29974C8.77334 30.6739 9.15855 30.2894 9.15855 29.8153C9.15846 29.3411 8.77401 28.9566 8.29984 28.9566L3.15481 28.9564C2.36322 28.9564 1.71787 28.3111 1.71787 27.5194L1.71778 3.71666C1.71778 2.61338 2.61538 1.71761 3.71702 1.71761L9.21484 1.71746V21.1877C9.21484 21.6618 9.59992 22.0464 10.0739 22.0464C10.5479 22.0464 10.9326 21.6618 10.9326 21.1877L10.9323 1.65484C10.9323 0.742442 10.1902 0.000145911 9.27793 0.000145911L3.71702 0C1.66809 0 0.000432968 1.66684 0.000432968 3.71672L0.000386238 27.5192C0.000386238 29.2592 1.4152 30.674 3.1548 30.6739Z" fill="#DD2B1C"/>
<path fill-rule="evenodd" clip-rule="evenodd" d="M66.7004 30.6723H71.8453C73.5849 30.6723 75 29.2576 75 27.5178L74.9998 24.1917C74.9998 24.0828 74.9791 23.9756 74.9389 23.8743C73.5507 20.3827 71.1746 17.422 68.0676 15.3124C64.9588 13.2028 61.3306 12.0877 57.5737 12.0877L31.2675 12.0876C29.2548 12.0876 27.3187 11.4914 25.667 10.3643C22.9339 8.50213 21.3034 5.42077 21.3034 2.12304L21.303 1.65489C21.303 0.74249 20.5608 9.6301e-05 19.6485 9.6301e-05L16.8631 0C16.2896 0 15.747 0.305707 15.4488 0.797663L9.3373 10.9114C9.09178 11.317 9.2231 11.8447 9.62865 12.0892C10.0337 12.3352 10.5618 12.2055 10.8078 11.7985L16.8994 1.71743H19.5856V2.12299C19.5856 5.99021 21.4971 9.60102 24.6994 11.7836C26.6371 13.1058 28.9095 13.8052 31.268 13.8052L57.573 13.805C64.5146 13.805 70.6631 17.9423 73.2824 24.3573L73.2822 27.5177C73.2822 28.3094 72.6368 28.955 71.8453 28.955L66.7002 28.9549C66.226 28.9549 65.8417 29.3396 65.8417 29.8137C65.8415 30.2878 66.2265 30.6724 66.7004 30.6723Z" fill="#DD2B1C"/>
<path fill-rule="evenodd" clip-rule="evenodd" d="M58.5128 24.5714C59.8559 24.5714 60.9476 25.6627 60.9476 27.006C60.9474 28.3477 59.8562 29.439 58.5131 29.439C57.1711 29.4389 56.08 28.3477 56.08 27.006C56.0796 25.6627 57.1713 24.5714 58.5128 24.5714ZM58.5128 31.1563C60.8025 31.1563 62.665 29.2944 62.665 27.006C62.6648 24.7159 60.8029 22.854 58.5131 22.854C56.2245 22.8539 54.3626 24.7161 54.3626 27.006C54.3621 29.2943 56.2246 31.1564 58.5128 31.1563Z" fill="#DD2B1C"/>
<path fill-rule="evenodd" clip-rule="evenodd" d="M16.4828 24.5714C17.826 24.5714 18.9173 25.6627 18.9173 27.006C18.9168 28.3477 17.826 29.439 16.4828 29.439C15.1412 29.4389 14.0498 28.3477 14.0498 27.006C14.0496 25.6627 15.1412 24.5714 16.4828 24.5714ZM16.4828 31.1563C18.7726 31.1563 20.6348 29.2944 20.6348 27.006C20.6343 24.7159 18.7727 22.854 16.4828 22.854C14.1939 22.8539 12.3324 24.7161 12.3324 27.006C12.3322 29.2943 14.1944 31.1564 16.4828 31.1563Z" fill="#DD2B1C"/>
<path fill-rule="evenodd" clip-rule="evenodd" d="M58.5059 19.2111C62.8042 19.2111 66.3001 22.7071 66.3001 27.0052C66.3001 31.3016 62.8042 34.7978 58.5062 34.7978C54.209 34.7977 50.7135 31.3017 50.7135 27.0052C50.7131 22.707 54.2095 19.2111 58.5059 19.2111ZM58.5059 36.5151C63.7508 36.5151 68.0176 32.2484 68.0176 27.0052C68.0176 21.7604 63.7508 17.4937 58.5062 17.4937C53.2624 17.4937 48.9961 21.7604 48.9961 27.0052C48.9956 32.2483 53.2628 36.5152 58.5059 36.5151Z" fill="#DD2B1C"/>
<path fill-rule="evenodd" clip-rule="evenodd" d="M16.4846 19.2111C20.7822 19.2111 24.2787 22.7071 24.2787 27.0052C24.2781 31.3016 20.7827 34.7978 16.4846 34.7978C12.1877 34.7977 8.69209 31.3017 8.69209 27.0052C8.69175 22.707 12.1881 19.2111 16.4846 19.2111ZM16.4846 36.5151C21.7289 36.5151 25.9961 32.2484 25.9961 27.0052C25.9956 21.7604 21.7294 17.4937 16.4846 17.4937C11.2411 17.4937 6.97465 21.7604 6.97465 27.0052C6.97432 32.2483 11.2414 36.5152 16.4846 36.5151Z" fill="#DD2B1C"/>
<path fill-rule="evenodd" clip-rule="evenodd" d="M44.2099 25.0528C44.4065 25.0528 44.605 24.9858 44.7674 24.8472C45.1263 24.5399 45.17 23.9974 44.8615 23.6366L35.2558 12.3912C34.9472 12.0304 34.4047 11.9873 34.0439 12.2959C33.6845 12.6044 33.6415 13.1456 33.95 13.5064L43.5552 24.7532C43.7249 24.9515 43.9668 25.0529 44.2099 25.0528Z" fill="#DD2B1C"/>
<path fill-rule="evenodd" clip-rule="evenodd" d="M38.3792 25.0473C38.577 25.0473 38.7759 24.9804 38.9369 24.8417C39.2976 24.5344 39.3409 23.9919 39.0324 23.6311L29.1163 12.0204C28.8091 11.6597 28.2671 11.618 27.9064 11.9251C27.5466 12.2336 27.5037 12.7764 27.8109 13.1357L37.7264 24.7462C37.8961 24.946 38.1378 25.0474 38.3792 25.0473Z" fill="#DD2B1C"/>
<path fill-rule="evenodd" clip-rule="evenodd" d="M0.876306 11.6173H4.68691C5.59926 11.6173 6.3418 10.8765 6.3418 9.96412L6.34127 8.02598C6.34127 7.11358 5.59936 6.37124 4.68691 6.37124L0.876312 6.37109C0.401992 6.37109 0.0176921 6.75583 0.0176921 7.22996C0.0176439 7.70394 0.40233 8.08867 0.876312 8.08867L4.62383 8.08853V9.89988H0.876312C0.401992 9.89988 0.0176921 10.2847 0.0176921 10.7587C0.0176439 11.2342 0.402324 11.6175 0.876306 11.6173Z" fill="#DD2B1C"/>
<path fill-rule="evenodd" clip-rule="evenodd" d="M0.876306 18.6798H4.68691C5.59926 18.6798 6.3418 17.9374 6.3418 17.025L6.34127 15.0899C6.34127 14.1775 5.59936 13.4352 4.68691 13.4352L0.876312 13.4351C0.401992 13.4351 0.0176921 13.8198 0.0176921 14.2939C0.0176439 14.7679 0.40233 15.1526 0.876312 15.1526L4.62383 15.1525V16.9624H0.876312C0.401992 16.9624 0.0176921 17.3471 0.0176921 17.8212C0.0176439 18.2952 0.402324 18.6798 0.876306 18.6798Z" fill="#DD2B1C"/>
<path fill-rule="evenodd" clip-rule="evenodd" d="M43.9757 13.8072C44.1945 13.8072 44.4156 13.7239 44.5825 13.5554C44.9176 13.2199 44.918 12.6773 44.5825 12.3419L36.8792 4.63877C36.5438 4.30333 36.0013 4.30338 35.6659 4.63877C35.3302 4.97421 35.3304 5.51691 35.6659 5.85235L43.3672 13.5553C43.5356 13.7239 43.7551 13.8074 43.9757 13.8072Z" fill="#DD2B1C"/>
<path fill-rule="evenodd" clip-rule="evenodd" d="M32.4993 9.87844C32.7186 9.87844 32.9397 9.79507 33.1067 9.62805L40.6604 2.07399C40.9959 1.73859 40.996 1.19594 40.6607 0.860503C40.3263 0.524966 39.7826 0.525063 39.4471 0.860503L31.8915 8.41293C31.556 8.74837 31.5563 9.29266 31.8917 9.62656C32.0598 9.79493 32.2787 9.87844 32.4993 9.87844Z" fill="#DD2B1C"/>
</svg>
