<svg width="81" height="80" viewBox="0 0 81 80" fill="none" xmlns="http://www.w3.org/2000/svg">
<ellipse cx="40.9968" cy="40" rx="39.9988" ry="40" fill="#DD2B1C"/>
<path d="M56.7333 23.1812H53.9023V22.7062C53.9018 21.7655 53.1368 21 52.1961 21H50.8585C49.9178 21 49.1523 21.7655 49.1523 22.7062V23.1812H43.3746V22.7062C43.3746 21.7655 42.6095 21 41.6688 21H40.3312C39.3905 21 38.625 21.7655 38.625 22.7062V23.1812H32.8473V22.7062C32.8473 21.7655 32.0822 21 31.1415 21H29.8039C28.8632 21 28.0977 21.7655 28.0977 22.7062V23.1812H25.2667C23.4655 23.1812 22 24.4035 22 25.9062V56.275C22 57.7772 23.4655 59 25.2667 59H56.7333C58.5345 59 60 57.7772 60 56.275V25.9062C60 24.4035 58.5345 23.1812 56.7333 23.1812ZM50.9235 22.7712H52.1306V26.2942H50.9235V22.7712ZM40.3962 22.7712H41.6034V24.0653V24.067V24.0687V26.2947H40.3962V22.7712ZM29.869 22.7712H31.0761V26.2942H29.869V22.7712ZM25.2667 24.9524H28.0977V26.3597C28.0977 27.3004 28.8632 28.0659 29.8039 28.0659H31.1415C32.0822 28.0659 32.8477 27.3004 32.8477 26.3597V24.9524H38.6254V26.3597C38.6254 27.3004 39.3909 28.0659 40.3316 28.0659H41.6692C42.6099 28.0659 43.375 27.3004 43.375 26.3597V24.9524H49.1527V26.3597C49.1527 27.3004 49.9182 28.0659 50.8589 28.0659H52.1965C53.1372 28.0659 53.9027 27.3004 53.9027 26.3597V24.9524H56.7337C57.6149 24.9524 58.2292 25.4549 58.2292 25.9062V29.2143H23.7712V25.9062C23.7712 25.4553 24.3851 24.9524 25.2667 24.9524ZM56.7333 57.2288H25.2667C24.3856 57.2288 23.7712 56.7259 23.7712 56.275V30.9856H58.2288V56.275C58.2288 56.7259 57.6144 57.2288 56.7333 57.2288ZM44.0472 33.3318H37.952C37.463 33.3318 37.0662 33.7283 37.0662 34.2177V38.0658C37.0662 38.5547 37.4626 38.9516 37.952 38.9516H44.0472C44.5361 38.9516 44.933 38.5552 44.933 38.0658V34.2177C44.933 33.7283 44.5361 33.3318 44.0472 33.3318ZM43.1618 37.1804H38.8378V35.1031H43.1618V37.1804ZM33.5199 33.3318H27.4251C26.9362 33.3318 26.5393 33.7283 26.5393 34.2177V38.0658C26.5393 38.5547 26.9358 38.9516 27.4251 38.9516H33.5203C34.0093 38.9516 34.4062 38.5552 34.4062 38.0658V34.2177C34.4057 33.7283 34.0093 33.3318 33.5199 33.3318ZM32.6345 37.1804H28.3105V35.1031H32.6345V37.1804ZM54.5744 33.3318H48.4797C47.9907 33.3318 47.5938 33.7283 47.5938 34.2177V38.0658C47.5938 38.5547 47.9903 38.9516 48.4797 38.9516H54.5744C55.0634 38.9516 55.4598 38.5552 55.4598 38.0658V34.2177C55.4598 33.7283 55.0638 33.3318 54.5744 33.3318ZM53.689 37.1804H49.3655V35.1031H53.689V37.1804ZM44.0472 41.2975H37.952C37.463 41.2975 37.0662 41.694 37.0662 42.1833V46.0314C37.0662 46.5204 37.4626 46.9173 37.952 46.9173H44.0472C44.5361 46.9173 44.933 46.5208 44.933 46.0314V42.1833C44.933 41.694 44.5361 41.2975 44.0472 41.2975ZM43.1618 45.1456H38.8378V43.0687H43.1618V45.1456ZM33.5199 41.2975H27.4251C26.9362 41.2975 26.5393 41.694 26.5393 42.1833V46.0314C26.5393 46.5204 26.9358 46.9173 27.4251 46.9173H33.5203C34.0093 46.9173 34.4062 46.5208 34.4062 46.0314V42.1833C34.4057 41.694 34.0093 41.2975 33.5199 41.2975ZM32.6345 45.1456H28.3105V43.0687H32.6345V45.1456ZM54.5744 41.2975H48.4797C47.9907 41.2975 47.5938 41.694 47.5938 42.1833V46.0314C47.5938 46.5204 47.9903 46.9173 48.4797 46.9173H54.5744C55.0634 46.9173 55.4598 46.5208 55.4598 46.0314V42.1833C55.4598 41.694 55.0638 41.2975 54.5744 41.2975ZM53.689 45.1456H49.3655V43.0687H53.689V45.1456ZM44.0472 49.2631H37.952C37.463 49.2631 37.0662 49.6596 37.0662 50.149V53.9971C37.0662 54.486 37.4626 54.8829 37.952 54.8829H44.0472C44.5361 54.8829 44.933 54.4864 44.933 53.9971V50.149C44.933 49.6596 44.5361 49.2631 44.0472 49.2631ZM43.1618 53.1113H38.8378V51.0344H43.1618V53.1113ZM33.5199 49.2631H27.4251C26.9362 49.2631 26.5393 49.6596 26.5393 50.149V53.9971C26.5393 54.486 26.9358 54.8829 27.4251 54.8829H33.5203C34.0093 54.8829 34.4062 54.4864 34.4062 53.9971V50.149C34.4057 49.6596 34.0093 49.2631 33.5199 49.2631ZM32.6345 53.1113H28.3105V51.0344H32.6345V53.1113ZM54.5744 49.2631H48.4797C47.9907 49.2631 47.5938 49.6596 47.5938 50.149V53.9971C47.5938 54.486 47.9903 54.8829 48.4797 54.8829H54.5744C55.0634 54.8829 55.4598 54.4864 55.4598 53.9971V50.149C55.4598 49.6596 55.0638 49.2631 54.5744 49.2631ZM53.689 53.1113H49.3655V51.0344H53.689V53.1113Z" fill="white"/>
</svg>
