<svg width="60" height="61" viewBox="0 0 60 61" fill="none" xmlns="http://www.w3.org/2000/svg">
<path d="M36.5885 15.504C48.39 15.504 57.9908 25.1055 57.9908 36.9064C57.9908 48.7079 48.3893 58.3087 36.5885 58.3087C24.787 58.3087 15.1862 48.7072 15.1862 36.9064C15.1862 25.1055 24.787 15.504 36.5885 15.504ZM36.5885 13.4946C23.6585 13.4946 13.1768 23.9764 13.1768 36.9064C13.1768 49.8363 23.6585 60.3181 36.5885 60.3181C49.5184 60.3181 60.0002 49.8363 60.0002 36.9064C60.0002 23.9771 49.5184 13.4946 36.5885 13.4946Z" fill="#DD2B1C"/>
<path d="M36.584 22.8748C44.3206 22.8748 50.615 29.1692 50.615 36.9058C50.615 44.6424 44.3206 50.9368 36.584 50.9368C28.8475 50.9368 22.553 44.6424 22.553 36.9058C22.553 29.1692 28.8475 22.8748 36.584 22.8748ZM36.584 20.8521C27.7177 20.8521 20.5303 28.0394 20.5303 36.9058C20.5303 45.7722 27.7177 52.9596 36.584 52.9596C45.4504 52.9596 52.6378 45.7722 52.6378 36.9058C52.6378 28.0401 45.4504 20.8521 36.584 20.8521Z" fill="#DD2B1C"/>
<path d="M42.0749 8.82817V9.85159H31.1128V8.82817H42.0749ZM42.1966 6.69971H30.9911C29.8874 6.69971 28.9844 7.60273 28.9844 8.70643V9.97333C28.9844 11.077 29.8874 11.9801 30.9911 11.9801H42.1959C43.2996 11.9801 44.2027 11.077 44.2027 9.97333V8.70643C44.2033 7.60273 43.3003 6.69971 42.1966 6.69971Z" fill="#DD2B1C"/>
<path d="M38.3804 2.00672V3.27363H34.785V2.00672H38.3804ZM38.3804 0H34.785C33.6813 0 32.7783 0.903023 32.7783 2.00672V3.27363C32.7783 4.37732 33.6813 5.28035 34.785 5.28035H38.3804C39.4841 5.28035 40.3871 4.37732 40.3871 3.27363V2.00672C40.3871 0.903023 39.4841 0 38.3804 0Z" fill="#DD2B1C"/>
<path d="M36.5896 35.5682C37.3275 35.5682 37.9275 36.1683 37.9275 36.9061C37.9275 37.6439 37.3275 38.2439 36.5896 38.2439C35.8518 38.2439 35.2518 37.6439 35.2518 36.9061C35.2518 36.1683 35.8518 35.5682 36.5896 35.5682ZM36.5896 33.5615C34.7421 33.5615 33.2451 35.0592 33.2451 36.9061C33.2451 38.7536 34.7421 40.2506 36.5896 40.2506C38.4365 40.2506 39.9342 38.7536 39.9342 36.9061C39.9342 35.0592 38.4365 33.5615 36.5896 33.5615Z" fill="#DD2B1C"/>
<path d="M36.5929 35.3298C35.9193 35.3298 35.3682 34.7787 35.3682 34.1051V26.0568C35.3682 25.3832 35.9193 24.832 36.5929 24.832C37.2665 24.832 37.8177 25.3832 37.8177 26.0568V34.1044C37.8177 34.7787 37.2665 35.3298 36.5929 35.3298Z" fill="#DD2B1C"/>
<path d="M37.8311 36.9035C37.8311 36.2299 38.3822 35.6787 39.0558 35.6787H43.2953C43.9689 35.6787 44.5201 36.2299 44.5201 36.9035C44.5201 37.5771 43.9689 38.1282 43.2953 38.1282H39.0558C38.3822 38.1282 37.8311 37.5771 37.8311 36.9035Z" fill="#DD2B1C"/>
<path d="M6.98438 21.2169V21.1534C6.98438 20.6189 7.42184 20.1821 7.95563 20.1821H16.046C16.5805 20.1821 17.0173 20.6189 17.0173 21.1534V21.2169C17.0173 21.7514 16.5798 22.1882 16.046 22.1882H7.9563C7.42184 22.1882 6.98438 21.7514 6.98438 21.2169Z" fill="#DD2B1C"/>
<path d="M4.28809 21.31V21.0571C4.28809 20.5748 4.68274 20.1802 5.16502 20.1802H5.41787C5.90015 20.1802 6.2948 20.5748 6.2948 21.0571V21.31C6.2948 21.7922 5.90015 22.1869 5.41787 22.1869H5.16502C4.68274 22.1869 4.28809 21.7929 4.28809 21.31Z" fill="#DD2B1C"/>
<path d="M2.92969 28.999C2.92969 28.4471 3.3812 27.9956 3.93305 27.9956H11.9599C12.5118 27.9956 12.9633 28.4471 12.9633 28.999C12.9633 29.5508 12.5118 30.0023 11.9599 30.0023H3.93305C3.3812 30.0023 2.92969 29.5508 2.92969 28.999Z" fill="#DD2B1C"/>
<path d="M0 29.0951V28.9045C0 28.4028 0.406695 27.9961 0.908375 27.9961H1.09901C1.60069 27.9961 2.00739 28.4028 2.00739 28.9045V29.0951C2.00739 29.5968 1.60069 30.0035 1.09901 30.0035H0.908375C0.406695 30.0028 0 29.5961 0 29.0951Z" fill="#DD2B1C"/>
<path d="M2.6875 36.9139V36.7159C2.6875 36.2182 3.0942 35.8115 3.59186 35.8115H10.4789C10.9766 35.8115 11.3833 36.2182 11.3833 36.7159V36.9139C11.3833 37.4115 10.9766 37.8182 10.4789 37.8182H3.59253C3.09486 37.8182 2.6875 37.4109 2.6875 36.9139Z" fill="#DD2B1C"/>
<path d="M0 36.9289V36.7028C0 36.2132 0.400675 35.8125 0.890314 35.8125H1.1164C1.60604 35.8125 2.00672 36.2132 2.00672 36.7028V36.9289C2.00672 37.4185 1.60604 37.8192 1.1164 37.8192H0.890314C0.400675 37.8192 0 37.4185 0 36.9289Z" fill="#DD2B1C"/>
<path d="M2.92969 44.6318C2.92969 44.0799 3.3812 43.6284 3.93305 43.6284H11.9599C12.5118 43.6284 12.9633 44.0799 12.9633 44.6318C12.9633 45.1836 12.5118 45.6351 11.9599 45.6351H3.93305C3.3812 45.6351 2.92969 45.1836 2.92969 44.6318Z" fill="#DD2B1C"/>
<path d="M0 44.7269V44.5363C0 44.0346 0.406695 43.6279 0.908375 43.6279H1.09901C1.60069 43.6279 2.00739 44.0346 2.00739 44.5363V44.7269C2.00739 45.2286 1.60069 45.6353 1.09901 45.6353H0.908375C0.406695 45.6353 0 45.2286 0 44.7269Z" fill="#DD2B1C"/>
<path d="M6.625 52.4772V52.4136C6.625 51.8792 7.06247 51.4424 7.59625 51.4424H15.6867C16.2211 51.4424 16.6579 51.8792 16.6579 52.4136V52.4772C16.6579 53.0116 16.2205 53.4484 15.6867 53.4484H7.59692C7.06246 53.4484 6.625 53.0116 6.625 52.4772Z" fill="#DD2B1C"/>
<path d="M3.91992 52.5712V52.3183C3.91992 51.8361 4.31458 51.4414 4.79686 51.4414H5.0497C5.53199 51.4414 5.92664 51.8361 5.92664 52.3183V52.5712C5.92664 53.0535 5.53199 53.4481 5.0497 53.4481H4.79686C4.31458 53.4481 3.91992 53.0535 3.91992 52.5712Z" fill="#DD2B1C"/>
</svg>
