<svg id="Layer_1" xmlns="http://www.w3.org/2000/svg" viewBox="0 0 126.1 58.3" preserveAspectRatio="xMinYMid"><style>.st0{fill:#dd2b1c}.st1{fill:#fff}</style><path class="st0" d="M40.3 36.7H25.1c-2.8 0-4.4 1.1-5 3.4l-1.6 6.7H5.3c-.5 0-.7-.2-.6-.7L7 36.7H2.7L.1 47.1c-.5 2.2.6 3.4 3.3 3.4h15.1l.2-.9c.5.6 1.5.9 3 .9H37l.9-3.6H23.5c-.5 0-.7-.2-.6-.7l.3-1h15l.8-3.3H24l.2-1c.1-.4.4-.7.9-.7h14.3l.9-3.5z"/><path class="st1" d="M66.6 36.7h-5.3c-1.9 0-3.3.8-4.4 2.7l-4.5 7.4h-1.1l-.9-7.4c-.2-1.8-1.1-2.6-3.3-2.6H42l-3.4 13.8h4.1l2.5-10.1h.2c.4 0 .7.3.7.7l1.2 9.4h7.1l5.8-9.4c.3-.4.7-.7 1.1-.7h.2L59 50.6h7.8l2-2.5h9.8l.8 2.5h7.4l2.5-10.1h.4c.6 0 .8.1 1 .6l3.2 7.5c.6 1.4 1.5 2 3.6 2H119c2.8 0 4.4-1.1 5-3.4l.5-2c.5-2.2-.6-3.3-3.3-3.3h-10.7c-.5 0-.8-.2-.7-.5l.2-.7c.1-.3.4-.5.9-.5h14.4l.9-3.6h-15.3c-2.8 0-4.4 1.1-5 3.4l-.5 2.2c-.5 2 .7 3 3.4 3h10.7c.5 0 .7.2.7.5l-.2.7c-.1.3-.4.5-.9.5h-15.8l2.5-10.3h-4.2l-2.5 10.1h-.4c-.5 0-.8-.1-1-.6l-3.3-7.5c-.7-1.5-1.6-2-3.6-2H86l-2.7 11-3.2-9.8c-.3-.9-.8-1.2-1.8-1.2h-3.5c-1.2 0-1.7.3-2.4 1.2l-8.8 10.7 3-11.8zm9.4 3.7c.3 0 .5.2.5.4l1.1 3.6h-6.1l2.9-3.6c.3-.3.5-.5.8-.5l.8.1zM42.2 26.1c-14.2-.6-25.1 3.3-35.9 7.3C12.9 29.2 19.4 25 26 20.7c8.6-1.1 17.3-2.2 24.7-2.1l6.8-6c-6.9-.3-14.1.3-20.8 1.1 2.9-1.9 5.8-3.8 8.8-5.7 5.7-.2 11.5-.4 17.3 0 4.5.2 8.6.8 12 1.9 3.1.9 6 1.9 8.7 3.3.7-1.3 1.5-2.7 2.2-4C83.6 7.9 80.9 6.9 78 6c-3.2-1-6.8-1.6-10.6-2-5.3-.4-10.4-.4-15.2-.2C54 2.5 55.9 1.2 57.7 0c4.9 0 9.4.3 13.1 1-1.2 1-2.3 2-3.5 3.1-1.5 1.3-3 2.7-4.6 4l-5.2 4.6c4.8.1 9.3.6 13.4 1.8 1.3-1.5 2.5-3 3.8-4.5 1.1-1.3 2.1-2.6 3.2-3.9.9-1.1 1.8-2.2 2.7-3.2 2.6.8 5 1.8 7.2 3.1l-2.1 3.3c2.2 1 4.3 2.3 6.3 3.9.5-1.2 1.1-2.4 1.6-3.6 1.6 1.2 3.3 2.4 4.9 3.5-.5 1.4-.9 2.7-1.4 4.1-.7 1.5-1.4 2.9-2.1 4.4-1.7-1.4-3.4-2.7-5.1-4.1-1.8-1.8-4.1-3.2-6.5-4.3-1 1.5-2 3-3.1 4.5-1.2 1.9-2.3 3.8-3.5 5.7-3.3-1.7-6.8-2.9-10.6-3.6-5.4-1.5-10.5-1.6-15.6-1.2-2.7 2.5-5.6 5-8.4 7.5zm59.1-6.2c.5-1.3 1-2.7 1.5-4 1.2.7 2.4 1.3 3.5 1.6-.6 1.3-1 2.6-1.2 4-.5 1.4-.8 2.7-1 3.9 1.1.2 2.2.3 3.5 0 .2-1.2.5-2.4 1-3.7-1.2.1-2.4 0-3.5-.2-1.6-.4-2.8-1-3.8-1.6-1.6-.8-2.9-1.7-4.1-2.8-1.6-1.4-3.4-2.7-5.2-4-.7 1.4-1.3 2.9-2 4.3-.9 1.7-1.8 3.4-2.7 5 2.1 1.4 3.8 2.9 5.4 4.5.8-1.8 1.6-3.7 2.4-5.5 1.4 1.2 2.9 2.2 4.5 3.1.4-1.4 1-3 1.7-4.6zm-20.9-2.2c-2.9-1.6-6.1-2.6-9.4-3.3-1.5 1.8-3.1 3.6-4.6 5.4-1.9 2.2-3.7 4.5-5.6 6.7 3.9.9 7.9 1.8 11.7 3.4 1.5-2.2 3-4.4 4.4-6.5 2.7 1.4 5.1 3.2 7.5 5.1 1-2 2-4 3-6.1-2.2-1.9-4.5-3.4-7-4.7zM58.7 54.3h.5v1.9c.1-.2.2-.3.3-.4l1.2-1.5h.6L60 56l1.6 2.3H61l-1.3-2-.4.4v1.5h-.5l-.1-3.9zm4 2.7l-.4 1.3h-.5l1.4-4h.6l1.4 4h-.6l-.5-1.3h-1.4zm1.3-.4l-.4-1.2c-.1-.3-.2-.5-.2-.7-.1.2-.1.5-.2.7l-.4 1.2H64zm1.7-2.3c.3-.1.6-.1 1-.1.6 0 .9.1 1.2.3.2.2.3.5.3.8 0 .5-.3.9-.8 1 .3.1.5.4.6.8.1.6.2 1 .3 1.1h-.5c-.1-.1-.2-.5-.3-1-.1-.6-.3-.8-.8-.8h-.5v1.8h-.5v-3.9zm.5 1.8h.5c.6 0 .9-.3.9-.8s-.4-.7-.9-.8h-.5v1.6zm3.6-1.4h-1.2v-.4h3v.4h-1.2v3.6h-.5v-3.6h-.1zm2.7-.4v4H72v-4h.5zm.9 4v-4h.6l1.3 2c.3.5.5.9.7 1.3 0-.5-.1-1-.1-1.7v-1.7h.5v4h-.5l-1.3-2.1c-.3-.4-.6-.9-.8-1.3v3.4l-.4.1zm7-.2c-.2.1-.7.2-1.2.2-.6 0-1.1-.2-1.5-.5-.3-.3-.6-.9-.6-1.5 0-1.2.8-2.1 2.2-2.1.5 0 .8.1 1 .2l-.1.4c-.2-.1-.5-.2-.9-.2-1 0-1.6.6-1.6 1.6s.6 1.6 1.6 1.6c.3 0 .6 0 .7-.1v-1.2h-.8v-.4h1.3l-.1 2zm4.9.1c-.2.1-.6.2-1.1.2-1.1 0-2-.7-2-2s.9-2.1 2.1-2.1c.5 0 .8.1 1 .2l-.1.4c-.2-.1-.5-.2-.8-.2-.9 0-1.6.6-1.6 1.7 0 1 .6 1.6 1.6 1.6.3 0 .6-.1.9-.2v.4zm.7-3.9h.5v3.6h1.7v.4H86v-4zm3.1 0v2.4c0 .9.4 1.3.9 1.3.6 0 1-.4 1-1.3v-2.4h.5v2.4c0 1.2-.7 1.8-1.5 1.8s-1.5-.5-1.5-1.7v-2.4l.6-.1zm3.4 0c.2 0 .6-.1 1-.1.5 0 .9.1 1.1.3s.3.4.3.7c0 .4-.3.7-.7.9.4.1.8.4.8 1 0 .3-.1.6-.3.8-.3.3-.7.4-1.4.4h-.8v-4zM93 56h.5c.6 0 .9-.3.9-.7 0-.5-.4-.7-.9-.7H93V56zm0 1.9h.4c.5 0 1-.2 1-.8s-.5-.8-1-.8H93v1.6z"/></svg>