<svg width="84" height="37" viewBox="0 0 84 37" fill="none" xmlns="http://www.w3.org/2000/svg">
<path d="M79.9168 24.0914C79.9151 24.0905 79.9142 24.0888 79.9142 24.0888L53.8673 4.24297C53.4854 3.95288 52.9442 4.02735 52.6532 4.40664C52.364 4.78679 52.4376 5.33061 52.8169 5.61983L57.2393 8.99011C56.0304 10.4085 55.0251 11.6391 54.2015 12.8064L47.4004 7.16382L49.7194 4.16677C50.0121 3.78835 49.9428 3.24453 49.5644 2.95184C49.1851 2.66002 48.643 2.72843 48.3494 3.10685L42.687 10.425C42.3943 10.8034 42.4636 11.3472 42.842 11.6399C42.9996 11.762 43.1858 11.8209 43.3711 11.8209C43.63 11.8209 43.8863 11.7057 44.0569 11.4849L46.3396 8.53462L53.2481 14.2655C51.5829 17.085 50.9534 19.9418 50.9854 24.8881H50.3584C50.3108 20.6666 47.8507 20.0266 46.3751 20.0266H36.188H34.4215L26.9267 3.65845C26.0651 1.3533 23.4889 0.179935 21.1846 1.04069C18.8812 1.90404 17.7069 4.47937 18.5712 6.79146L21.2599 13.7416H10.6408C9.16435 13.7416 6.82195 14.785 6.82195 17.5847V21.0718C2.99012 21.5031 0 24.7608 0 28.7061C0 32.9449 3.44908 36.3931 7.6879 36.3931C9.66054 36.3931 11.4565 35.6397 12.8187 34.4144H59.5029C60.865 35.6406 62.661 36.394 64.6345 36.394C66.608 36.394 68.404 35.6406 69.7661 34.4144H79.3885C81.537 34.4144 83.2247 33.3796 83.791 31.7126C84.5747 29.4075 83.126 26.5585 79.9168 24.0914ZM58.068 32.6825H14.2553C14.9619 31.5204 15.3758 30.1626 15.3758 28.7061C15.3758 27.9821 15.2684 27.2842 15.0805 26.62H49.4882C49.4916 26.62 49.4942 26.6217 49.4968 26.6217C49.4994 26.6217 49.502 26.62 49.5055 26.62H57.2427C57.0548 27.285 56.9475 27.9821 56.9475 28.7061C56.9475 30.1626 57.3614 31.5204 58.068 32.6825ZM21.7916 2.66261C23.1997 2.13785 24.7774 2.85399 25.3282 4.32177L33.0663 21.2268C33.0672 21.2294 33.068 21.2312 33.0689 21.2338L33.0767 21.2511C33.0897 21.2788 33.1131 21.2961 33.1278 21.3212C33.1693 21.3922 33.2118 21.4624 33.2707 21.5187C33.2992 21.5455 33.3356 21.5611 33.3668 21.5836C33.4257 21.626 33.4828 21.6702 33.5521 21.6971C33.5902 21.7118 33.6326 21.7118 33.6733 21.7204C33.7365 21.736 33.7972 21.7594 33.8647 21.7594H36.188H46.3759C46.9847 21.7594 48.5867 21.7655 48.6274 24.889H27.4307L20.1905 6.17664C19.664 4.76601 20.3819 3.18998 21.7916 2.66261ZM10.6408 15.4726H21.9302L25.5732 24.8881H14.3514C13.1607 22.8167 11.0365 21.3507 8.55385 21.071V17.5838C8.55385 15.4969 10.62 15.4726 10.6408 15.4726ZM1.7319 28.7061C1.7319 25.4215 4.40336 22.7501 7.6879 22.7501C10.9716 22.7501 13.6439 25.4215 13.6439 28.7061C13.6439 31.9897 10.9725 34.6612 7.6879 34.6612C4.40336 34.6612 1.7319 31.9897 1.7319 28.7061ZM58.6794 28.7061C58.6794 25.4215 61.3508 22.7501 64.6354 22.7501C67.9199 22.7501 70.5914 25.4215 70.5914 28.7061C70.5914 31.9906 67.9199 34.6621 64.6354 34.6621C61.3508 34.6621 58.6794 31.9906 58.6794 28.7061ZM82.1518 31.155C81.8262 32.111 80.794 32.6825 79.3894 32.6825H71.2027C71.9085 31.5204 72.3233 30.1626 72.3233 28.7061C72.3233 24.4664 68.8751 21.0182 64.6354 21.0182C61.7864 21.0182 59.3002 22.5795 57.9719 24.8881H52.7164C52.6593 17.6089 54.0067 15.4475 58.6205 10.0414L78.8647 25.4665L78.8664 25.4674C81.9154 27.815 82.564 29.9444 82.1518 31.155Z" fill="#DD2B1C"/>
</svg>
